# xmcd
#
# Track frame offsets: 
#        150
#        21849
#        39881
#        57314
#        72658
#
# Disc length: 1268 seconds
#
# Revision: 0
# Processed by: cddbd v1.5.2PL0 Copyright (c) Steve Scherf et al.
# Submitted via: ExactAudioCopy v1.0b1
#
DISCID=3f04f205
DTITLE=Christopher Cross - Doctor Faith (Bonus)
DYEAR=2011
DGENRE=Pop
TTITLE0=Ride Like The Wind
TTITLE1=Arthur`s Theme
TTITLE2=In The Blink Of An Eye
TTITLE3=Think Of Laura
TTITLE4=Sailing
EXTD=
EXTT0=
EXTT1=
EXTT2=
EXTT3=
EXTT4=
PLAYORDER=
